# xmcd
#
# Track frame offsets:
#	150
#	24557
#	42374
#	53857
#	65317
#	81419
#	94613
#	105881
#	116183
#	131348
#	143106
#	155661
#	166271
#
# Disc length: 2407 seconds
#
# Revision: 0
# Processed by: cddbd v1.5PL3 Copyright (c) Steve Scherf et al.
# Submitted via: audiograbber 1.81.01
#
DISCID=a709650d
DTITLE=Trio Potiguá - Trio Potiguá
DYEAR=2001
DGENRE=Forró
TTITLE0=Agradar Você
TTITLE1=Trem Bom
TTITLE2=Liga Pra Mim
TTITLE3=Pode Chegar
TTITLE4=Bilma No Sapato
TTITLE5=Tem Que Ser Forró
TTITLE6=Estava Tão Só
TTITLE7=Em Natal Tem Conquistas
TTITLE8=Se Eu Pudesse
TTITLE9=Vem Cá Morena
TTITLE10=Vai E Vem
TTITLE11=Lua Clara
TTITLE12=Romeu E Julieta
EXTD=
EXTT0=
EXTT1=
EXTT2=
EXTT3=
EXTT4=
EXTT5=
EXTT6=
EXTT7=
EXTT8=
EXTT9=
EXTT10=
EXTT11=
EXTT12=
PLAYORDER=
